<svg width="21" height="24" viewBox="0 0 21 24" fill="none" xmlns="http://www.w3.org/2000/svg">
<path d="M17.994 7.96762L8.454 0.967621C7.70889 0.422006 6.82722 0.0934154 5.90677 0.0182844C4.98631 -0.0568467 4.06302 0.124418 3.2393 0.541978C2.41557 0.959539 1.72358 1.59708 1.24006 2.38391C0.75654 3.17073 0.500386 4.0761 0.5 4.99962V18.9996C0.500165 19.9236 0.756333 20.8294 1.24007 21.6166C1.72382 22.4037 2.41621 23.0415 3.24042 23.459C4.06463 23.8766 4.98841 24.0576 5.90925 23.982C6.83008 23.9063 7.71196 23.577 8.457 23.0306L17.997 16.0306C18.6303 15.5662 19.1452 14.9592 19.5002 14.2587C19.8552 13.5582 20.0401 12.7839 20.0401 11.9986C20.0401 11.2133 19.8552 10.4391 19.5002 9.73856C19.1452 9.03806 18.6303 8.43103 17.997 7.96662L17.994 7.96762ZM16.81 14.4176L7.27 21.4176C6.82302 21.7442 6.29437 21.9408 5.74257 21.9856C5.19078 22.0304 4.63736 21.9216 4.14357 21.6712C3.64978 21.4209 3.23488 21.0389 2.9448 20.5674C2.65472 20.0958 2.50078 19.5532 2.5 18.9996V4.99962C2.49445 4.44497 2.6455 3.9 2.93578 3.42734C3.22606 2.95469 3.6438 2.57351 4.141 2.32762C4.56389 2.11251 5.03154 2.00014 5.506 1.99962C6.14189 2.00205 6.76022 2.20851 7.27 2.58862L16.81 9.58862C17.1895 9.86732 17.4981 10.2314 17.7107 10.6515C17.9234 11.0716 18.0343 11.5358 18.0343 12.0066C18.0343 12.4775 17.9234 12.9417 17.7107 13.3618C17.4981 13.7818 17.1895 14.1459 16.81 14.4246V14.4176Z" fill="#A7A7A8"/>
</svg>
